<mxfile host="65bd71144e">
    <diagram id="g5spBLx_vvhdmmsODNRa" name="Page-1">
        <mxGraphModel dx="2088" dy="718" grid="1" gridSize="10" guides="1" tooltips="1" connect="1" arrows="1" fold="1" page="1" pageScale="1" pageWidth="850" pageHeight="1100" math="0" shadow="0">
            <root>
                <mxCell id="0"/>
                <mxCell id="1" parent="0"/>
                <mxCell id="144" style="edgeStyle=none;html=1;exitX=0.5;exitY=0;exitDx=0;exitDy=0;entryX=0.495;entryY=1.004;entryDx=0;entryDy=0;entryPerimeter=0;endArrow=block;endFill=0;startSize=7;endSize=9;dashed=1;strokeWidth=3;" parent="1" source="46" target="95" edge="1">
                    <mxGeometry relative="1" as="geometry"/>
                </mxCell>
                <mxCell id="145" style="edgeStyle=none;html=1;entryX=0.5;entryY=0;entryDx=0;entryDy=0;dashed=1;endArrow=block;endFill=0;startSize=7;endSize=9;strokeWidth=3;" parent="1" source="46" target="96" edge="1">
                    <mxGeometry relative="1" as="geometry"/>
                </mxCell>
                <mxCell id="46" value="&lt;&lt;interface&gt;&gt; interface" style="swimlane;fontStyle=1;align=center;verticalAlign=top;childLayout=stackLayout;horizontal=1;startSize=26;horizontalStack=0;resizeParent=1;resizeParentMax=0;resizeLast=0;collapsible=1;marginBottom=0;" parent="1" vertex="1">
                    <mxGeometry x="70" y="458" width="250" height="100" as="geometry"/>
                </mxCell>
                <mxCell id="48" value="" style="line;strokeWidth=1;fillColor=none;align=left;verticalAlign=middle;spacingTop=-1;spacingLeft=3;spacingRight=3;rotatable=0;labelPosition=right;points=[];portConstraint=eastwest;" parent="46" vertex="1">
                    <mxGeometry y="26" width="250" height="8" as="geometry"/>
                </mxCell>
                <mxCell id="63" value="+ friend ostream&amp;(COUT::ostream&amp;, Inter :&#10;Interface&amp;) : virtual&#10;+ print(ostream&amp; os) : void virtual&#10;+ operator+(calificacion : double) : virtual" style="text;strokeColor=none;fillColor=none;align=left;verticalAlign=top;spacingLeft=4;spacingRight=4;overflow=hidden;rotatable=0;points=[[0,0.5],[1,0.5]];portConstraint=eastwest;" parent="46" vertex="1">
                    <mxGeometry y="34" width="250" height="66" as="geometry"/>
                </mxCell>
                <mxCell id="88" value="Episodio" style="swimlane;fontStyle=1;align=center;verticalAlign=top;childLayout=stackLayout;horizontal=1;startSize=26;horizontalStack=0;resizeParent=1;resizeParentMax=0;resizeLast=0;collapsible=1;marginBottom=0;" parent="1" vertex="1">
                    <mxGeometry x="460" y="608" width="200" height="250" as="geometry"/>
                </mxCell>
                <mxCell id="89" value="- idEpisodio : string&#10;- nombreEpisodio : string&#10;- temporada : int&#10;- numEpisodio : int " style="text;strokeColor=none;fillColor=none;align=left;verticalAlign=top;spacingLeft=4;spacingRight=4;overflow=hidden;rotatable=0;points=[[0,0.5],[1,0.5]];portConstraint=eastwest;" parent="88" vertex="1">
                    <mxGeometry y="26" width="200" height="74" as="geometry"/>
                </mxCell>
                <mxCell id="90" value="" style="line;strokeWidth=1;fillColor=none;align=left;verticalAlign=middle;spacingTop=-1;spacingLeft=3;spacingRight=3;rotatable=0;labelPosition=right;points=[];portConstraint=eastwest;" parent="88" vertex="1">
                    <mxGeometry y="100" width="200" height="8" as="geometry"/>
                </mxCell>
                <mxCell id="91" value="+ Episodio()&#10;+ Episodio(idc : string, nom :string,&#10;gen : string, cal : double, dur : int,&#10;fEst : string, ideps : string, nomEps :&#10;string, temp : int, numEps : int)&#10;+getNombreEpisodio() : string&#10;+ setCalificacion() : void&#10;+ friend ostream&amp;(COUT::ostream&amp;, Inter :&#10;Interface&amp;) : ostream" style="text;strokeColor=none;fillColor=none;align=left;verticalAlign=top;spacingLeft=4;spacingRight=4;overflow=hidden;rotatable=0;points=[[0,0.5],[1,0.5]];portConstraint=eastwest;" parent="88" vertex="1">
                    <mxGeometry y="108" width="200" height="142" as="geometry"/>
                </mxCell>
                <mxCell id="92" value="Pelicula" style="swimlane;fontStyle=1;align=center;verticalAlign=top;childLayout=stackLayout;horizontal=1;startSize=26;horizontalStack=0;resizeParent=1;resizeParentMax=0;resizeLast=0;collapsible=1;marginBottom=0;" parent="1" vertex="1">
                    <mxGeometry x="75" y="260" width="240" height="150" as="geometry"/>
                </mxCell>
                <mxCell id="94" value="" style="line;strokeWidth=1;fillColor=none;align=left;verticalAlign=middle;spacingTop=-1;spacingLeft=3;spacingRight=3;rotatable=0;labelPosition=right;points=[];portConstraint=eastwest;" parent="92" vertex="1">
                    <mxGeometry y="26" width="240" height="8" as="geometry"/>
                </mxCell>
                <mxCell id="95" value="+ Pelicula()&#10;+ Pelicula( idc : string, nom :string,&#10;gen : string, cal : double, dur : int,&#10;fEst : string)&#10;+ getNombre() : string&#10;+ print(ostream&amp; os) : void override&#10;+ operator+(calificacion : double) : override" style="text;strokeColor=none;fillColor=none;align=left;verticalAlign=top;spacingLeft=4;spacingRight=4;overflow=hidden;rotatable=0;points=[[0,0.5],[1,0.5]];portConstraint=eastwest;" parent="92" vertex="1">
                    <mxGeometry y="34" width="240" height="116" as="geometry"/>
                </mxCell>
                <mxCell id="96" value="Serie" style="swimlane;fontStyle=1;align=center;verticalAlign=top;childLayout=stackLayout;horizontal=1;startSize=26;horizontalStack=0;resizeParent=1;resizeParentMax=0;resizeLast=0;collapsible=1;marginBottom=0;" parent="1" vertex="1">
                    <mxGeometry x="-25" y="620" width="440" height="240" as="geometry"/>
                </mxCell>
                <mxCell id="150" value="- episodios : vector&lt;Episodio&gt;&#10;- nombre : string" style="text;strokeColor=none;fillColor=none;align=left;verticalAlign=top;spacingLeft=4;spacingRight=4;overflow=hidden;rotatable=0;points=[[0,0.5],[1,0.5]];portConstraint=eastwest;" parent="96" vertex="1">
                    <mxGeometry y="26" width="440" height="44" as="geometry"/>
                </mxCell>
                <mxCell id="98" value="" style="line;strokeWidth=1;fillColor=none;align=left;verticalAlign=middle;spacingTop=-1;spacingLeft=3;spacingRight=3;rotatable=0;labelPosition=right;points=[];portConstraint=eastwest;" parent="96" vertex="1">
                    <mxGeometry y="70" width="440" height="8" as="geometry"/>
                </mxCell>
                <mxCell id="99" value="+ Serie()&#10;+ Serie (eps : vector&lt;Episodio&gt; , nom : string)&#10;+ print(ostream&amp; os) : void override&#10;+ operator+(calificacion : double) : override&#10;+ getNombre() : string&#10;+ contains(s : const string&amp;, substring : const string&amp;) : void&#10;+ addEpisodio(episodio : const Episodio&amp;) : void&#10;+ getEpisodiosConCalificacionMayorA(calificacion : double) : vector&lt;Episodio*&gt;&#10;+ getEpisodiosDeGenero(genero : string) : vector&lt;Episodio*&gt;&#10;+ getEpisodios() : vector&lt;Episodio*&gt;&#10; " style="text;strokeColor=none;fillColor=none;align=left;verticalAlign=top;spacingLeft=4;spacingRight=4;overflow=hidden;rotatable=0;points=[[0,0.5],[1,0.5]];portConstraint=eastwest;" parent="96" vertex="1">
                    <mxGeometry y="78" width="440" height="162" as="geometry"/>
                </mxCell>
                <mxCell id="135" style="edgeStyle=none;html=1;exitX=0.5;exitY=0;exitDx=0;exitDy=0;endArrow=diamondThin;endFill=1;startSize=8;endSize=11;entryX=0.501;entryY=0.979;entryDx=0;entryDy=0;entryPerimeter=0;strokeWidth=3;" parent="1" source="101" target="108" edge="1">
                    <mxGeometry relative="1" as="geometry">
                        <mxPoint x="-160" y="370" as="targetPoint"/>
                    </mxGeometry>
                </mxCell>
                <mxCell id="101" value="Catálogo" style="swimlane;fontStyle=1;align=center;verticalAlign=top;childLayout=stackLayout;horizontal=1;startSize=26;horizontalStack=0;resizeParent=1;resizeParentMax=0;resizeLast=0;collapsible=1;marginBottom=0;" parent="1" vertex="1">
                    <mxGeometry x="-355" y="438" width="400" height="170" as="geometry"/>
                </mxCell>
                <mxCell id="102" value="    -catalogo: vector&lt;interface*&gt;" style="text;strokeColor=none;fillColor=none;align=left;verticalAlign=top;spacingLeft=4;spacingRight=4;overflow=hidden;rotatable=0;points=[[0,0.5],[1,0.5]];portConstraint=eastwest;" parent="101" vertex="1">
                    <mxGeometry y="26" width="400" height="24" as="geometry"/>
                </mxCell>
                <mxCell id="103" value="" style="line;strokeWidth=1;fillColor=none;align=left;verticalAlign=middle;spacingTop=-1;spacingLeft=3;spacingRight=3;rotatable=0;labelPosition=right;points=[];portConstraint=eastwest;" parent="101" vertex="1">
                    <mxGeometry y="50" width="400" height="8" as="geometry"/>
                </mxCell>
                <mxCell id="104" value="+ leerCSV(rutaArchivo : string) void&#10;+ mostrarVideosConCalificacionMayorA(calificacion : double) : void&#10;+ mostrarVideosDeGenero(genero : string) : void&#10;+ mostrarEpisodiosDeSerie(nombre : string) : void&#10;+ mostrarPeliculasConCalificacionMayorA(calificacion : double) : void&#10;+ calificarVideo(nombreVideo : string, calificacion : double) : void&#10;+ contains(s : const string&amp;, substring : const string&amp;) : void" style="text;strokeColor=none;fillColor=none;align=left;verticalAlign=top;spacingLeft=4;spacingRight=4;overflow=hidden;rotatable=0;points=[[0,0.5],[1,0.5]];portConstraint=eastwest;" parent="101" vertex="1">
                    <mxGeometry y="58" width="400" height="112" as="geometry"/>
                </mxCell>
                <mxCell id="105" value="Menu" style="swimlane;fontStyle=1;align=center;verticalAlign=top;childLayout=stackLayout;horizontal=1;startSize=26;horizontalStack=0;resizeParent=1;resizeParentMax=0;resizeLast=0;collapsible=1;marginBottom=0;" parent="1" vertex="1">
                    <mxGeometry x="-310" y="260" width="310" height="110" as="geometry"/>
                </mxCell>
                <mxCell id="106" value="-catálogo: Catálogo" style="text;strokeColor=none;fillColor=none;align=left;verticalAlign=top;spacingLeft=4;spacingRight=4;overflow=hidden;rotatable=0;points=[[0,0.5],[1,0.5]];portConstraint=eastwest;" parent="105" vertex="1">
                    <mxGeometry y="26" width="310" height="24" as="geometry"/>
                </mxCell>
                <mxCell id="107" value="" style="line;strokeWidth=1;fillColor=none;align=left;verticalAlign=middle;spacingTop=-1;spacingLeft=3;spacingRight=3;rotatable=0;labelPosition=right;points=[];portConstraint=eastwest;" parent="105" vertex="1">
                    <mxGeometry y="50" width="310" height="8" as="geometry"/>
                </mxCell>
                <mxCell id="108" value="+ Menu(cat Catalogo)&#10;+ aplicacion() : void" style="text;strokeColor=none;fillColor=none;align=left;verticalAlign=top;spacingLeft=4;spacingRight=4;overflow=hidden;rotatable=0;points=[[0,0.5],[1,0.5]];portConstraint=eastwest;" parent="105" vertex="1">
                    <mxGeometry y="58" width="310" height="52" as="geometry"/>
                </mxCell>
                <mxCell id="115" value="Video" style="swimlane;fontStyle=1;align=center;verticalAlign=top;childLayout=stackLayout;horizontal=1;startSize=26;horizontalStack=0;resizeParent=1;resizeParentMax=0;resizeLast=0;collapsible=1;marginBottom=0;" parent="1" vertex="1">
                    <mxGeometry x="460" y="220" width="200" height="230" as="geometry"/>
                </mxCell>
                <mxCell id="116" value=" - id: string&#10; - nombre: string&#10; - genero : string&#10; - calificacion : double&#10; - duracion : int&#10; - fechaEstreno : string" style="text;strokeColor=none;fillColor=none;align=left;verticalAlign=top;spacingLeft=4;spacingRight=4;overflow=hidden;rotatable=0;points=[[0,0.5],[1,0.5]];portConstraint=eastwest;" parent="115" vertex="1">
                    <mxGeometry y="26" width="200" height="94" as="geometry"/>
                </mxCell>
                <mxCell id="117" value="" style="line;strokeWidth=1;fillColor=none;align=left;verticalAlign=middle;spacingTop=-1;spacingLeft=3;spacingRight=3;rotatable=0;labelPosition=right;points=[];portConstraint=eastwest;" parent="115" vertex="1">
                    <mxGeometry y="120" width="200" height="8" as="geometry"/>
                </mxCell>
                <mxCell id="149" value="+ Video()&#10;+ Video( idc : string, nom :string,&#10;gen : string, cal : double, dur : int,&#10;fEst : string)&#10;+ getCalificacaion() : void&#10;+ getGenero() : void" style="text;strokeColor=none;fillColor=none;align=left;verticalAlign=top;spacingLeft=4;spacingRight=4;overflow=hidden;rotatable=0;points=[[0,0.5],[1,0.5]];portConstraint=eastwest;" parent="115" vertex="1">
                    <mxGeometry y="128" width="200" height="102" as="geometry"/>
                </mxCell>
                <mxCell id="126" style="edgeStyle=none;html=1;endArrow=block;endFill=0;startSize=7;endSize=9;exitX=0;exitY=0.574;exitDx=0;exitDy=0;exitPerimeter=0;entryX=0.999;entryY=0.075;entryDx=0;entryDy=0;entryPerimeter=0;strokeWidth=3;" parent="1" source="116" target="95" edge="1">
                    <mxGeometry relative="1" as="geometry">
                        <mxPoint x="320" y="340" as="targetPoint"/>
                    </mxGeometry>
                </mxCell>
                <mxCell id="127" style="edgeStyle=none;html=1;entryX=0.5;entryY=0;entryDx=0;entryDy=0;endArrow=block;endFill=0;startSize=7;endSize=9;exitX=0.5;exitY=1;exitDx=0;exitDy=0;strokeWidth=3;" parent="1" source="115" target="88" edge="1">
                    <mxGeometry relative="1" as="geometry">
                        <mxPoint x="430" y="430" as="sourcePoint"/>
                    </mxGeometry>
                </mxCell>
                <mxCell id="131" style="edgeStyle=none;html=1;endArrow=diamondThin;endFill=1;startSize=10;endSize=11;exitX=-0.002;exitY=0.898;exitDx=0;exitDy=0;exitPerimeter=0;entryX=1.006;entryY=0.028;entryDx=0;entryDy=0;entryPerimeter=0;strokeWidth=3;" parent="1" source="89" edge="1" target="99">
                    <mxGeometry relative="1" as="geometry">
                        <mxPoint x="410" y="892" as="targetPoint"/>
                    </mxGeometry>
                </mxCell>
                <mxCell id="147" style="edgeStyle=none;html=1;entryX=1;entryY=0.375;entryDx=0;entryDy=0;entryPerimeter=0;endArrow=diamondThin;endFill=1;strokeWidth=3;endSize=9;startSize=7;" parent="1" source="63" target="104" edge="1">
                    <mxGeometry relative="1" as="geometry"/>
                </mxCell>
            </root>
        </mxGraphModel>
    </diagram>
</mxfile>